<svg xmlns="http://www.w3.org/2000/svg" width="15" height="15" viewBox="0 0 15 15"><path fill="#616161" d="M661.792222,195.056432 L663.844218,197.438383 C663.961487,197.498558 664.03567,197.618907 664.03567,197.751295 L664.03567,198.448325 C664.03567,198.55665 663.921402,198.627857 663.824175,198.578715 L662.026788,196.442476 L662.026,202.029 L667.556532,202.029071 L665.418283,200.23467 C665.36914,200.136439 665.441353,200.020161 665.551662,200.020161 L666.249711,200.020161 C666.380101,200.020161 666.499431,200.094344 666.556617,200.211613 L668.946584,202.332781 C669.018797,202.479123 669.017791,202.651537 668.943568,202.796874 L666.561617,204.848871 C666.501442,204.96614 666.381093,205.040323 666.248705,205.040323 L665.551675,205.040323 C665.44335,205.040323 665.372143,204.926054 665.421285,204.828828 L667.557524,203.03144 L662.026,203.031 L662.026788,208.557524 L663.824175,206.421285 C663.907512,206.379163 664.00337,206.425461 664.029057,206.507765 L664.03567,206.551675 L664.03567,207.248705 C664.03567,207.354615 663.988193,207.452821 663.90916,207.518676 L663.844218,207.561617 L661.792222,209.943568 C661.675952,210.002947 661.542353,210.015466 661.418637,209.981126 L661.328129,209.946584 L659.20696,207.556617 C659.113145,207.510869 659.046905,207.425347 659.024162,207.326209 L659.015509,207.249711 L659.015509,206.551662 C659.015509,206.457111 659.100937,206.39055 659.187205,206.404409 L659.230018,206.418283 L661.024419,208.556532 L661.024,203.031 L655.442476,203.03144 L657.578715,204.828828 C657.620837,204.912165 657.574539,205.008022 657.492235,205.033709 L657.448325,205.040323 L656.751295,205.040323 C656.645385,205.040323 656.547179,204.992846 656.481324,204.913813 L656.438383,204.848871 L654.056432,202.796874 C653.997053,202.680605 653.984534,202.547006 654.018874,202.42329 L654.053416,202.332781 L656.443383,200.211613 C656.489131,200.117798 656.574653,200.051558 656.673791,200.028814 L656.750289,200.020161 L657.448338,200.020161 C657.542889,200.020161 657.60945,200.10559 657.595591,200.191858 L657.581717,200.23467 L655.443468,202.029071 L661.024,202.029 L661.024419,196.443468 L659.230018,198.581717 C659.131787,198.63086 659.015509,198.558647 659.015509,198.448338 L659.015509,197.750289 C659.015509,197.619899 659.089691,197.500569 659.20696,197.443383 L661.328129,195.053416 C661.474471,194.981203 661.646885,194.982209 661.792222,195.056432 Z" transform="translate(-654 -195)"></path></svg>